<svg width="120" height="120" viewBox="0 0 120 120" fill="none" xmlns="http://www.w3.org/2000/svg">
<rect width="120" height="120" rx="60" fill="url(#paint0_linear_5_51)" fill-opacity="0.4"/>
<rect x="15" y="15" width="90" height="90" rx="45" fill="url(#paint1_linear_5_51)"/>
<path d="M54.375 76.1797H47.625C45.7266 76.1797 44.25 74.7031 44.25 72.8047V48.0547C44.25 46.2266 45.7266 44.6797 47.625 44.6797H54.375C56.2031 44.6797 57.75 46.2266 57.75 48.0547V72.8047C57.75 74.7031 56.2031 76.1797 54.375 76.1797ZM75.75 72.8047C75.75 74.7031 74.2031 76.1797 72.375 76.1797H65.625C63.7266 76.1797 62.25 74.7031 62.25 72.8047V48.0547C62.25 46.2266 63.7266 44.6797 65.625 44.6797H72.375C74.2031 44.6797 75.75 46.2266 75.75 48.0547V72.8047Z" fill="#0D1C26"/>
<defs>
<linearGradient id="paint0_linear_5_51" x1="60" y1="0" x2="60" y2="120" gradientUnits="userSpaceOnUse">
<stop stop-color="#61C197"/>
<stop offset="1" stop-color="#5DC4D1"/>
</linearGradient>
<linearGradient id="paint1_linear_5_51" x1="60" y1="15" x2="60" y2="105" gradientUnits="userSpaceOnUse">
<stop stop-color="#61C197"/>
<stop offset="1" stop-color="#5DC4D1"/>
</linearGradient>
</defs>
</svg>
