<svg width="120" height="120" viewBox="0 0 120 120" fill="none" xmlns="http://www.w3.org/2000/svg">
<rect width="120" height="120" rx="60" fill="#D9D957" fill-opacity="0.4"/>
<rect x="15" y="15" width="90" height="90" rx="45" fill="#D9D957"/>
<path d="M54.375 76.1797H47.625C46.6875 76.1797 45.8906 75.8516 45.2344 75.1953C44.5781 74.5391 44.25 73.7422 44.25 72.8047V48.0547C44.25 47.1172 44.5781 46.3203 45.2344 45.6641C45.8906 45.0078 46.6875 44.6797 47.625 44.6797H54.375C55.3125 44.6797 56.1094 45.0078 56.7656 45.6641C57.4219 46.3203 57.75 47.1172 57.75 48.0547V72.8047C57.75 73.7422 57.4219 74.5391 56.7656 75.1953C56.1094 75.8516 55.3125 76.1797 54.375 76.1797ZM75.75 72.8047C75.75 73.7422 75.4219 74.5391 74.7656 75.1953C74.1094 75.8516 73.3125 76.1797 72.375 76.1797H65.625C64.6875 76.1797 63.8906 75.8516 63.2344 75.1953C62.5781 74.5391 62.25 73.7422 62.25 72.8047V48.0547C62.25 47.1172 62.5781 46.3203 63.2344 45.6641C63.8906 45.0078 64.6875 44.6797 65.625 44.6797H72.375C73.3125 44.6797 74.1094 45.0078 74.7656 45.6641C75.4219 46.3203 75.75 47.1172 75.75 48.0547V72.8047Z" fill="#0D1C26"/>
</svg>
